{"accessors" : [{"bufferView" : 0, "byteOffset" : 0, "componentType" : 5123, "count" : 12684, "type" : "SCALAR", "max" : [12683], "min" : [0]}, {"bufferView" : 1, "byteOffset" : 0, "componentType" : 5126, "count" : 12684, "type" : "VEC3", "max" : [4.64715576171875, 4.184955596923828, 3.4406495094299316], "min" : [-16.99603843688965, -15.305633544921875, -12.55935001373291], "name" : "POSITION"}, {"bufferView" : 1, "byteOffset" : 12, "componentType" : 5126, "count" : 12684, "type" : "VEC3", "max" : [0.9999976754188538, 1.0000009536743164, 0.9999749064445496], "min" : [-0.9999976754188538, -0.9999710917472839, -0.9995672702789307], "name" : "NORMAL"}], "asset" : {"generator" : "Aspose.3D 23.7.0", "version" : "2.0"}, "buffers" : [{"uri" : "data:application/octet-stream;base64,", "byteLength" : 329792}], "bufferViews" : [{"buffer" : 0, "byteOffset" : 0, "byteLength" : 25368, "target" : 34963}, {"buffer" : 0, "byteOffset" : 25372, "byteLength" : 304416, "byteStride" : 24, "target" : 34962}], "meshes" : [{"primitives" : [{"attributes" : {"POSITION" : 1, "NORMAL" : 2}, "indices" : 0, "mode" : 4}], "name" : "\"D100_16mm\""}], "nodes" : [{"mesh" : 0, "name" : "\"D100_16mm\""}], "scene" : 0, "scenes" : [{"nodes" : [0]}]}