{"accessors" : [{"bufferView" : 0, "byteOffset" : 0, "componentType" : 5123, "count" : 10896, "type" : "SCALAR", "max" : [10895], "min" : [0]}, {"bufferView" : 1, "byteOffset" : 0, "componentType" : 5126, "count" : 10896, "type" : "VEC3", "max" : [10.840499877929688, 9.762316703796387, 7.999962329864502], "min" : [-10.840499877929688, -9.762316703796387, -7.999962329864502], "name" : "POSITION"}, {"bufferView" : 1, "byteOffset" : 12, "componentType" : 5126, "count" : 10896, "type" : "VEC3", "max" : [0.9999480247497559, 0.9999709129333496, 0.9993395209312439], "min" : [-0.9999441504478455, -0.9999922513961792, -0.999150812625885], "name" : "NORMAL"}], "asset" : {"generator" : "Aspose.3D 23.7.0", "version" : "2.0"}, "buffers" : [{"uri" : "data:application/octet-stream;base64,", "byteLength" : 283304}], "bufferViews" : [{"buffer" : 0, "byteOffset" : 0, "byteLength" : 21792, "target" : 34963}, {"buffer" : 0, "byteOffset" : 21796, "byteLength" : 261504, "byteStride" : 24, "target" : 34962}], "meshes" : [{"primitives" : [{"attributes" : {"POSITION" : 1, "NORMAL" : 2}, "indices" : 0, "mode" : 4}], "name" : "\"D10_16mm\""}], "nodes" : [{"mesh" : 0, "name" : "\"D10_16mm\""}], "scene" : 0, "scenes" : [{"nodes" : [0]}]}