{"accessors" : [{"bufferView" : 0, "byteOffset" : 0, "componentType" : 5123, "count" : 13884, "type" : "SCALAR", "max" : [13883], "min" : [0]}, {"bufferView" : 1, "byteOffset" : 0, "componentType" : 5126, "count" : 13884, "type" : "VEC3", "max" : [10.156610488891602, 11.720342636108398, 49.252593994140625], "min" : [-10.156610488891602, -11.720342636108398, 30.252592086791992], "name" : "POSITION"}, {"bufferView" : 1, "byteOffset" : 12, "componentType" : 5126, "count" : 13884, "type" : "VEC3", "max" : [0.9996327757835388, 1.0000005960464478, 0.9995059370994568], "min" : [-0.9999366998672485, -1.0000014305114746, -0.9999986290931702], "name" : "NORMAL"}], "asset" : {"generator" : "Aspose.3D 23.7.0", "version" : "2.0"}, "buffers" : [{"uri" : "data:application/octet-stream;base64,", "byteLength" : 360992}], "bufferViews" : [{"buffer" : 0, "byteOffset" : 0, "byteLength" : 27768, "target" : 34963}, {"buffer" : 0, "byteOffset" : 27772, "byteLength" : 333216, "byteStride" : 24, "target" : 34962}], "meshes" : [{"primitives" : [{"attributes" : {"POSITION" : 1, "NORMAL" : 2}, "indices" : 0, "mode" : 4}], "name" : "\"D20_19mm\""}], "nodes" : [{"mesh" : 0, "name" : "\"D20_19mm\""}], "scene" : 0, "scenes" : [{"nodes" : [0]}]}