{"accessors" : [{"bufferView" : 0, "byteOffset" : 0, "componentType" : 5123, "count" : 13860, "type" : "SCALAR", "max" : [13859], "min" : [0]}, {"bufferView" : 1, "byteOffset" : 0, "componentType" : 5126, "count" : 13860, "type" : "VEC3", "max" : [8.70757007598877, 9.854994773864746, 8.238783836364746], "min" : [-8.640118598937988, -9.740922927856445, -7.761216163635254], "name" : "POSITION"}, {"bufferView" : 1, "byteOffset" : 12, "componentType" : 5126, "count" : 13860, "type" : "VEC3", "max" : [0.9999250173568726, 1.0000044107437134, 0.9998726844787598], "min" : [-0.9999232292175293, -1.0000044107437134, -0.9999454021453857], "name" : "NORMAL"}], "asset" : {"generator" : "Aspose.3D 23.7.0", "version" : "2.0"}, "buffers" : [{"uri" : "data:application/octet-stream;base64,", "byteLength" : 360368}], "bufferViews" : [{"buffer" : 0, "byteOffset" : 0, "byteLength" : 27720, "target" : 34963}, {"buffer" : 0, "byteOffset" : 27724, "byteLength" : 332640, "byteStride" : 24, "target" : 34962}], "meshes" : [{"primitives" : [{"attributes" : {"POSITION" : 1, "NORMAL" : 2}, "indices" : 0, "mode" : 4}], "name" : "\"D4_16mm\""}], "nodes" : [{"mesh" : 0, "name" : "\"D4_16mm\""}], "scene" : 0, "scenes" : [{"nodes" : [0]}]}