{"accessors" : [{"bufferView" : 0, "byteOffset" : 0, "componentType" : 5123, "count" : 5412, "type" : "SCALAR", "max" : [5411], "min" : [0]}, {"bufferView" : 1, "byteOffset" : 0, "componentType" : 5126, "count" : 5412, "type" : "VEC3", "max" : [8.002584457397461, 7.95988130569458, 7.973337650299072], "min" : [-7.9974141120910645, -8.040118217468262, -8.026662826538086], "name" : "POSITION"}, {"bufferView" : 1, "byteOffset" : 12, "componentType" : 5126, "count" : 5412, "type" : "VEC3", "max" : [1.0000044107437134, 1.0000044107437134, 1.0000044107437134], "min" : [-1.0000044107437134, -1.0000044107437134, -1.0000044107437134], "name" : "NORMAL"}], "asset" : {"generator" : "Aspose.3D 23.7.0", "version" : "2.0"}, "buffers" : [{"uri" : "data:application/octet-stream;base64,", "byteLength" : 140720}], "bufferViews" : [{"buffer" : 0, "byteOffset" : 0, "byteLength" : 10824, "target" : 34963}, {"buffer" : 0, "byteOffset" : 10828, "byteLength" : 129888, "byteStride" : 24, "target" : 34962}], "meshes" : [{"primitives" : [{"attributes" : {"POSITION" : 1, "NORMAL" : 2}, "indices" : 0, "mode" : 4}], "name" : "\"D6_16mm\""}], "nodes" : [{"mesh" : 0, "name" : "\"D6_16mm\""}], "scene" : 0, "scenes" : [{"nodes" : [0]}]}