{"accessors" : [{"bufferView" : 0, "byteOffset" : 0, "componentType" : 5123, "count" : 8016, "type" : "SCALAR", "max" : [8015], "min" : [0]}, {"bufferView" : 1, "byteOffset" : 0, "componentType" : 5126, "count" : 8016, "type" : "VEC3", "max" : [9.899495124816895, 8.545422554016113, 6.999999523162842], "min" : [-9.899495124816895, -8.545422554016113, -6.999999523162842], "name" : "POSITION"}, {"bufferView" : 1, "byteOffset" : 12, "componentType" : 5126, "count" : 8016, "type" : "VEC3", "max" : [0.999650239944458, 0.9999938011169434, 0.9998262524604797], "min" : [-0.999823272228241, -1.000002145767212, -0.9997550249099731], "name" : "NORMAL"}], "asset" : {"generator" : "Aspose.3D 23.7.0", "version" : "2.0"}, "buffers" : [{"uri" : "data:application/octet-stream;base64,", "byteLength" : 208424}], "bufferViews" : [{"buffer" : 0, "byteOffset" : 0, "byteLength" : 16032, "target" : 34963}, {"buffer" : 0, "byteOffset" : 16036, "byteLength" : 192384, "byteStride" : 24, "target" : 34962}], "meshes" : [{"primitives" : [{"attributes" : {"POSITION" : 1, "NORMAL" : 2}, "indices" : 0, "mode" : 4}], "name" : "\"D8_14mm\""}], "nodes" : [{"mesh" : 0, "name" : "\"D8_14mm\""}], "scene" : 0, "scenes" : [{"nodes" : [0]}]}