{"accessors" : [{"bufferView" : 0, "byteOffset" : 0, "componentType" : 5123, "count" : 12426, "type" : "SCALAR", "max" : [12425], "min" : [0]}, {"bufferView" : 1, "byteOffset" : 0, "componentType" : 5126, "count" : 12426, "type" : "VEC3", "max" : [10.506446838378906, 9.992169380187988, 8.5], "min" : [-10.506446838378906, -9.992169380187988, -8.5], "name" : "POSITION"}, {"bufferView" : 1, "byteOffset" : 12, "componentType" : 5126, "count" : 12426, "type" : "VEC3", "max" : [0.9998921751976013, 1.0000044107437134, 0.9999498128890991], "min" : [-0.9998581409454346, -1.0000044107437134, -0.9999948740005493], "name" : "NORMAL"}], "asset" : {"generator" : "Aspose.3D 23.7.0", "version" : "2.0"}, "buffers" : [{"uri" : "data:application/octet-stream;base64,", "byteLength" : 323084}], "bufferViews" : [{"buffer" : 0, "byteOffset" : 0, "byteLength" : 24852, "target" : 34963}, {"buffer" : 0, "byteOffset" : 24856, "byteLength" : 298224, "byteStride" : 24, "target" : 34962}], "meshes" : [{"primitives" : [{"attributes" : {"POSITION" : 1, "NORMAL" : 2}, "indices" : 0, "mode" : 4}], "name" : "\"D12_17mm\""}], "nodes" : [{"mesh" : 0, "name" : "\"D12_17mm\""}], "scene" : 0, "scenes" : [{"nodes" : [0]}]}