{
    "asset" : {
        "generator" : "Khronos glTF Blender I/O v3.3.27",
        "version" : "2.0"
    },
    "scene" : 0,
    "scenes" : [
        {
            "name" : "Scene",
            "nodes" : [
                0
            ]
        }
    ],
    "nodes" : [
        {
            "mesh" : 0,
            "name" : "D4_16mm"
        }
    ],
    "meshes" : [
        {
            "name" : "D4_16mm",
            "primitives" : [
                {
                    "attributes" : {
                        "POSITION" : 0,
                        "NORMAL" : 1,
                        "TEXCOORD_0" : 2
                    },
                    "indices" : 3
                }
            ]
        }
    ],
    "accessors" : [
        {
            "bufferView" : 0,
            "componentType" : 5126,
            "count" : 13449,
            "max" : [
                9.779163360595703,
                10.181235313415527,
                9.799989700317383
            ],
            "min" : [
                -7.568525314331055,
                -5.818764686584473,
                -9.795928001403809
            ],
            "type" : "VEC3"
        },
        {
            "bufferView" : 1,
            "componentType" : 5126,
            "count" : 13449,
            "type" : "VEC3"
        },
        {
            "bufferView" : 2,
            "componentType" : 5126,
            "count" : 13449,
            "type" : "VEC2"
        },
        {
            "bufferView" : 3,
            "componentType" : 5123,
            "count" : 13860,
            "type" : "SCALAR"
        }
    ],
    "bufferViews" : [
        {
            "buffer" : 0,
            "byteLength" : 161388,
            "byteOffset" : 0,
            "target" : 34962
        },
        {
            "buffer" : 0,
            "byteLength" : 161388,
            "byteOffset" : 161388,
            "target" : 34962
        },
        {
            "buffer" : 0,
            "byteLength" : 107592,
            "byteOffset" : 322776,
            "target" : 34962
        },
        {
            "buffer" : 0,
            "byteLength" : 27720,
            "byteOffset" : 430368,
            "target" : 34963
        }
    ],
    "buffers" : [
        {
            "byteLength" : 458088,
            "uri" : "data:application/octet-stream;base64,"
        }
    ]
}
